<svg xmlns="http://www.w3.org/2000/svg">
    <defs>


        <svg id="checkbox-rounded" width="100%" height="100%" viewBox="0 0 20 20"
            fill="none" xmlns="http://www.w3.org/2000/svg">
            <circle cx="10.0001" cy="10" r="8.33333" fill="currentColor" />
            <path d="M6.00073 9.91582L8.78316 12.6982L14.0002 7.4812" stroke="white"
                stroke-width="1.5" stroke-linecap="round" stroke-linejoin="round" />
        </svg>

        <svg id="checkbox-square-on" width="100%" height="100%" viewBox="0 0 24 24"
            fill="none" xmlns="http://www.w3.org/2000/svg">
            <rect x="3" y="3" width="18" height="18" rx="4" fill="currentColor" />
            <path d="M16.6666 8.66667L9.99995 15.3333L7.33329 12.6667" stroke="white"
                stroke-width="2" stroke-linecap="round" stroke-linejoin="round" />
        </svg>

        <svg id="checkbox-square-off" width="100%" height="100%" viewBox="0 0 24 24"
            fill="none" xmlns="http://www.w3.org/2000/svg">
            <rect x="3.75" y="3.75" width="16.5" height="16.5" rx="3.25" stroke="currentColor"
                stroke-width="1.5" fill="transparent" />
        </svg>


        <svg id="circle-delete" width="100%" height="100%" viewBox="0 0 20 20" fill="none"
            xmlns="http://www.w3.org/2000/svg">
            <circle cx="9.99999" cy="10" r="8.33333" fill="currentColor" />
            <path d="M12.5 7.5L7.5 12.5" stroke="white" stroke-width="1.5" stroke-linecap="round" />
            <path d="M7.5 7.5L12.5 12.5" stroke="white" stroke-width="1.5" stroke-linecap="round" />
        </svg>

        <svg id="btn-close" width="100%" height="100%" viewBox="0 0 24 24" fill="none"
            xmlns="http://www.w3.org/2000/svg">
            <path d="M5 5L19 19" stroke="currentColor" stroke-width="1.75" stroke-linecap="round"
                stroke-linejoin="round" />
            <path d="M5 19L19 5" stroke="currentColor" stroke-width="1.75" stroke-linecap="round"
                stroke-linejoin="round" />
        </svg>

        <svg id="chevron" width="100%" height="100%" viewBox="0 0 20 20" fill="none"
            xmlns="http://www.w3.org/2000/svg">
            <path d="M4.16602 7.08374L9.99935 12.9171L15.8327 7.08374" stroke="currentColor"
                stroke-width="1.5" stroke-linecap="round" stroke-linejoin="round" />
        </svg>

        <svg id="trash" width="100%" height="100%" viewBox="0 0 24 24" fill="none"
            xmlns="http://www.w3.org/2000/svg">
            <path
                d="M4 7H20M10 11V17M14 11V17M5 7L6 19C6 19.5304 6.21071 20.0391 6.58579 20.4142C6.96086 20.7893 7.46957 21 8 21H16C16.5304 21 17.0391 20.7893 17.4142 20.4142C17.7893 20.0391 18 19.5304 18 19L19 7M9 7V4C9 3.73478 9.10536 3.48043 9.29289 3.29289C9.48043 3.10536 9.73478 3 10 3H14C14.2652 3 14.5196 3.10536 14.7071 3.29289C14.8946 3.48043 15 3.73478 15 4V7"
                stroke="currentColor" stroke-width="1.5" stroke-linecap="round"
                stroke-linejoin="round" />
        </svg>

        <svg id="search" xmlns="http://www.w3.org/2000/svg" width="100%" height="100%"
            viewBox="0 0 20 20" fill="none">
            <path
                d="M17.5 17.5L12.5 12.5M2.5 8.33333C2.5 9.09938 2.65088 9.85792 2.94404 10.5657C3.23719 11.2734 3.66687 11.9164 4.20854 12.4581C4.75022 12.9998 5.39328 13.4295 6.10101 13.7226C6.80875 14.0158 7.56729 14.1667 8.33333 14.1667C9.09938 14.1667 9.85792 14.0158 10.5657 13.7226C11.2734 13.4295 11.9164 12.9998 12.4581 12.4581C12.9998 11.9164 13.4295 11.2734 13.7226 10.5657C14.0158 9.85792 14.1667 9.09938 14.1667 8.33333C14.1667 7.56729 14.0158 6.80875 13.7226 6.10101C13.4295 5.39328 12.9998 4.75022 12.4581 4.20854C11.9164 3.66687 11.2734 3.23719 10.5657 2.94404C9.85792 2.65088 9.09938 2.5 8.33333 2.5C7.56729 2.5 6.80875 2.65088 6.10101 2.94404C5.39328 3.23719 4.75022 3.66687 4.20854 4.20854C3.66687 4.75022 3.23719 5.39328 2.94404 6.10101C2.65088 6.80875 2.5 7.56729 2.5 8.33333Z"
                stroke="currentColor" stroke-width="1.5" stroke-linecap="round"
                stroke-linejoin="round" />
        </svg>

        <svg id="btn-radio-on" width="100%" height="100%" viewBox="0 0 20 20" fill="none"
            xmlns="http://www.w3.org/2000/svg">
            <circle cx="10" cy="9.99999" r="7.58333" stroke="currentColor" stroke-width="1.5" />
            <circle cx="9.99999" cy="10" r="4.16667" fill="currentColor" />
        </svg>

        <svg id="btn-radio-off" width="100%" height="100%" viewBox="0 0 20 20" fill="none"
            xmlns="http://www.w3.org/2000/svg">
            <circle cx="10" cy="9.99999" r="7.58333" stroke="currentColor" stroke-width="1.5" />
        </svg>

        <svg id="btn-round-back" xmlns="http://www.w3.org/2000/svg" width="100%"
            height="100%" viewBox="0 0 24 24" fill="none">
            <rect width="24" height="24" rx="4" fill="#F7F9FA" />
            <path d="M14 7L9 12L14 17" stroke="currentColor" stroke-width="1.5"
                stroke-linecap="round" stroke-linejoin="round" />
        </svg>

    </defs>
</svg>